<?xml version="1.0" standalone="no"?><!DOCTYPE svg PUBLIC "-//W3C//DTD SVG 1.1//EN" "http://www.w3.org/Graphics/SVG/1.1/DTD/svg11.dtd"><svg t="1559548577328" class="icon" style="" viewBox="0 0 1029 1024" version="1.1" xmlns="http://www.w3.org/2000/svg" p-id="965" xmlns:xlink="http://www.w3.org/1999/xlink" width="200.9765625" height="200"><defs><style type="text/css"></style></defs><path d="M852.395163 337.74148a337.74148 337.74148 0 0 0-675.482959 0c0 225.160986 337.74148 562.902466 337.741479 562.902465s337.74148-337.74148 337.74148-562.902465z m-611.151249 0a273.409769 273.409769 0 0 1 546.819538 0c0 139.438982-169.192398 354.789383-273.409769 469.460656C410.436312 692.691692 241.243914 477.341291 241.243914 337.74148z" fill="#d81e06" p-id="966"></path><path d="M506.933878 201.519083a143.942202 143.942202 0 1 0 143.942202 143.942202 143.942202 143.942202 0 0 0-143.942202-143.942202z m0 223.552693a79.610492 79.610492 0 1 1 79.610491-79.610491 80.414638 80.414638 0 0 1-79.610491 79.610491z" fill="#d81e06" p-id="967"></path><path d="M843.067065 623.213444a32.165855 32.165855 0 1 0-21.229465 60.793467c88.295272 30.879221 143.138056 74.946443 143.138056 114.832103 0 76.072248-184.953667 160.829276-450.321973 160.829276s-450.321973-84.757028-450.321973-160.829276c0-39.564002 54.038637-83.148736 140.886446-114.027957a32.165855 32.165855 0 0 0-21.551123-60.632637C65.296686 666.154861 0 728.234962 0 798.839014c0 128.663421 221.301084 225.160986 514.653683 225.160986s514.653683-96.497566 514.653683-225.160986c0-71.247369-66.100832-133.488299-186.240301-175.62557z" fill="#211B13" p-id="968"></path></svg>